<svg width="129" height="29" viewBox="0 0 129 29" fill="none" xmlns="http://www.w3.org/2000/svg">
<g clip-path="url(#clip0_77_544)">
<path d="M23.6534 7.86758C22.7918 6.71992 21.4807 6.14612 19.7184 6.14612C18.3981 6.14612 17.3155 6.52001 16.4761 7.26969C15.6349 8.01752 15.0035 8.96156 14.5838 10.1C14.2625 8.96156 13.6869 8.01752 12.8568 7.26969C12.0248 6.52186 10.9496 6.14612 9.62931 6.14612C8.34612 6.14612 7.30062 6.48114 6.48911 7.14937C5.67761 7.8176 5.0518 8.71167 4.61169 9.82971V6.5052H0.043457V22.7649H4.63955V13.5133C4.63955 12.0751 4.86982 11.0236 5.33035 10.3554C5.79089 9.68718 6.49283 9.35214 7.43433 9.35214C8.37583 9.35214 9.07035 9.68718 9.5216 10.3554C9.97286 11.0236 10.1976 12.0565 10.1976 13.4541V22.7668H14.7936V13.5152C14.7936 12.0769 15.0239 11.0255 15.4844 10.3573C15.945 9.68903 16.6469 9.35399 17.5884 9.35399C18.5299 9.35399 19.2245 9.68903 19.6757 10.3573C20.127 11.0255 20.3517 12.0584 20.3517 13.4559V22.7686H24.9478V12.4638C24.944 10.5479 24.5151 9.01709 23.6534 7.86758Z" fill="white"/>
<path d="M42.8137 20.9879C42.1434 19.6903 41.187 18.6871 39.9447 17.9781C38.7042 17.2691 37.252 16.9156 35.59 16.9156C33.9688 16.9156 32.5259 17.2747 31.2632 17.9929C30.0023 18.7111 29.0255 19.7088 28.3365 20.9879C28.0357 21.5451 27.798 22.1374 27.6309 22.765H32.2158C32.4368 21.9931 32.7766 21.3859 33.2334 20.9435C33.863 20.3345 34.6485 20.0291 35.59 20.0291C36.5501 20.0291 37.3523 20.3586 37.993 21.0175C38.4423 21.4803 38.7655 22.0634 38.9586 22.765H43.4897C43.3244 22.1374 43.0997 21.5451 42.8137 20.9879Z" fill="white"/>
<path d="M43.8202 6.38494C43.8202 4.68938 43.4841 3.19186 42.8137 1.89427C42.4423 1.17605 41.9818 0.548548 41.4358 0.0098877H29.7683C29.2 0.550399 28.7246 1.17791 28.3365 1.89427C27.6457 3.1715 27.3003 4.6394 27.3003 6.29609C27.3003 7.95279 27.6401 9.42439 28.3216 10.7127C29.0013 11.9992 29.967 13.0025 31.2186 13.7226C32.4702 14.4408 33.9279 14.798 35.59 14.798C37.5714 14.798 39.2446 14.3612 40.6057 13.4819C41.9669 12.6027 42.9177 11.3162 43.46 9.6206H38.8323C38.5333 10.3185 38.1322 10.8386 37.6308 11.1773C37.1294 11.5161 36.459 11.6864 35.6197 11.6864C34.6392 11.6864 33.8258 11.3476 33.1851 10.6683C32.5445 9.99081 32.1452 8.99309 31.9837 7.67513H43.7274C43.7905 7.21237 43.8202 6.78477 43.8202 6.38494ZM32.0152 4.61719C32.1972 3.38068 32.602 2.45699 33.2334 1.84799C33.863 1.23899 34.6485 0.935422 35.59 0.935422C36.55 0.935422 37.3523 1.26306 37.9929 1.92204C38.6336 2.58102 39.0143 3.47878 39.135 4.61719H32.0152Z" fill="white"/>
<path d="M84.7915 0.00802612V22.7632H89.3876V0.00802612H84.7915Z" fill="white"/>
<path d="M107.473 16.7324C106.91 15.7754 106.071 15.022 104.949 14.4722C103.826 13.9225 102.446 13.6485 100.805 13.6485C99.4229 13.6485 98.1861 13.8595 97.0942 14.2779C96.0023 14.6962 95.1221 15.3052 94.4517 16.103C93.7813 16.9027 93.3765 17.8523 93.2354 18.9481H97.8612C97.9596 18.3298 98.266 17.8097 98.7767 17.3913C99.2892 16.973 99.9651 16.762 100.805 16.762C101.746 16.762 102.465 17.0378 102.968 17.5857C103.467 18.1355 103.718 18.8389 103.718 19.6978V19.968L99.421 20.3864C97.4396 20.5659 95.8185 21.0157 94.5557 21.7321C94.0729 22.0061 93.6829 22.3504 93.3876 22.765H108.312V20.0254C108.312 18.7871 108.032 17.6912 107.473 16.7324Z" fill="white"/>
<path d="M108.309 0.00802612H103.716V0.126494L99.4193 0.546684C97.4378 0.726234 95.8167 1.1742 94.5539 1.89241C93.293 2.61062 92.6616 3.80826 92.6616 5.48533C92.6616 6.50342 92.9123 7.41599 93.4119 8.22491C93.9132 9.03382 94.5985 9.66318 95.4713 10.1111C96.3422 10.5591 97.2986 10.7849 98.3385 10.7849C99.761 10.7849 100.892 10.4851 101.733 9.88716C102.574 9.28742 103.256 8.44888 103.776 7.37157V10.4258H108.311V0.185727C108.312 0.128344 108.312 0.069111 108.309 0.00802612ZM103.718 3.51394C103.718 4.37283 103.583 5.14472 103.312 5.83332C103.042 6.52193 102.637 7.06059 102.095 7.44931C101.555 7.83803 100.903 8.03425 100.143 8.03425C99.6217 8.03425 99.1481 7.92874 98.7155 7.71957C98.2865 7.50854 97.9504 7.21422 97.7108 6.83476C97.4694 6.45714 97.3506 6.00733 97.3506 5.48903C97.3506 4.90964 97.5214 4.46168 97.8612 4.14145C98.2011 3.82306 98.63 3.59354 99.1519 3.45286C99.6737 3.31588 100.324 3.20296 101.105 3.12336L103.718 2.85496V3.51394Z" fill="white"/>
<path d="M62.7323 22.765C62.6841 24.1644 62.3015 25.325 61.5791 26.2376C60.8085 27.215 59.8168 27.9184 58.6061 28.3497C57.3934 28.7773 56.0973 28.992 54.7175 28.992C53.3749 28.992 52.1344 28.7976 50.9924 28.4089C49.8503 28.0202 48.8995 27.4204 48.1381 26.6115C47.3786 25.8026 46.9274 24.7993 46.7881 23.6017H51.4139C51.5754 24.3403 51.9543 24.903 52.5559 25.2936C53.1576 25.6823 53.8763 25.8766 54.7194 25.8766C55.7389 25.8766 56.5708 25.5971 57.2115 25.0381C57.8113 24.5143 58.1307 23.7572 58.1697 22.7632H62.7323V22.765Z" fill="white"/>
<path d="M73.3967 22.765C72.73 23.0057 71.9482 23.1241 71.0513 23.1241C70.2936 23.1241 69.5787 23.0057 68.9102 22.765H73.3967Z" fill="white"/>
<path d="M124.349 22.765C123.692 23.0057 122.984 23.1241 122.227 23.1241C121.499 23.1241 120.814 23.0057 120.175 22.765H124.349Z" fill="white"/>
<path d="M58.1697 6.50527V10.0982C57.789 8.93942 57.1335 7.99167 56.2031 7.2531C55.2709 6.51638 54.1233 6.14432 52.764 6.14432C51.4418 6.14432 50.27 6.48861 49.2487 7.17721C48.2292 7.8658 47.4362 8.83391 46.8754 10.0815C46.3146 11.3291 46.0342 12.7619 46.0342 14.3778C46.0342 15.9957 46.3146 17.4284 46.8754 18.676C47.4362 19.9236 48.2273 20.8917 49.2487 21.5803C50.27 22.2689 51.4418 22.6114 52.764 22.6114C53.984 22.6114 55.0759 22.2874 56.036 21.6396C56.9979 20.9917 57.7073 20.1365 58.1697 19.0795V22.5521C58.1697 22.6225 58.1679 22.6928 58.166 22.7632C58.127 23.7572 57.8076 24.5161 57.2078 25.0381C56.5671 25.5971 55.7352 25.8767 54.7157 25.8767C53.8726 25.8767 53.1539 25.6823 52.5523 25.2936C51.9506 24.903 51.5718 24.3403 51.4102 23.6017H46.7844C46.9237 24.7993 47.3749 25.8026 48.1345 26.6115C48.8958 27.4204 49.8466 28.0183 50.9887 28.4089C52.1307 28.7976 53.3712 28.992 54.7138 28.992C56.0936 28.992 57.3898 28.7773 58.6024 28.3497C59.815 27.9202 60.8048 27.215 61.5755 26.2376C62.2959 25.325 62.6803 24.1644 62.7286 22.765C62.7305 22.6669 62.7323 22.5651 62.7323 22.4651V6.50527H58.1697ZM57.3601 18.154C56.699 19.0518 55.7575 19.4997 54.5356 19.4997C53.2932 19.4997 52.348 19.0518 51.698 18.154C51.0462 17.2544 50.7213 15.9975 50.7213 14.3797C50.7213 12.7637 51.0462 11.5068 51.698 10.6072C52.348 9.70946 53.2932 9.2615 54.5356 9.2615C55.7575 9.2615 56.699 9.70946 57.3601 10.6072C58.0193 11.5068 58.3498 12.7637 58.3498 14.3797C58.3498 15.9975 58.0193 17.2544 57.3601 18.154Z" fill="white"/>
<path d="M80.1822 9.23182C79.6195 8.27297 78.7801 7.52143 77.6585 6.97167C76.535 6.4219 75.1553 6.14612 73.5137 6.14612C72.1321 6.14612 70.8953 6.35711 69.8034 6.77546C68.7115 7.1938 67.8312 7.8028 67.1609 8.60246C66.4905 9.40212 66.0856 10.3499 65.9445 11.4475H70.5703C70.6687 10.8293 70.9751 10.3091 71.4858 9.88894C71.9984 9.4706 72.6743 9.26143 73.5137 9.26143C74.4552 9.26143 75.1738 9.53539 75.6771 10.0852C76.1766 10.6349 76.4273 11.3383 76.4273 12.1972V12.4638L72.1302 12.8821C70.1488 13.0635 68.5276 13.5115 67.2649 14.2297C66.0039 14.9479 65.3726 16.1455 65.3726 17.8226C65.3726 18.8388 65.6233 19.7533 66.1228 20.5622C66.6242 21.3711 67.3094 22.0005 68.1822 22.4484C68.418 22.5687 68.6613 22.6761 68.9083 22.7631C69.5768 23.0037 70.2899 23.1222 71.0494 23.1222C71.9482 23.1222 72.7282 23.0037 73.3948 22.7631C73.7829 22.6261 74.1321 22.4447 74.4422 22.2226C75.2853 21.6247 75.9649 20.7862 76.4849 19.7088V22.7631H81.0197V12.523C81.0234 11.2865 80.743 10.1888 80.1822 9.23182ZM76.4273 15.8475C76.4273 16.7064 76.2918 17.4802 76.0206 18.1688C75.7514 18.8555 75.3465 19.396 74.8043 19.7847C74.2639 20.1735 73.6121 20.3678 72.8526 20.3678C72.3308 20.3678 71.8572 20.2642 71.4245 20.055C70.9956 19.844 70.6595 19.5496 70.4199 19.1702C70.1785 18.7926 70.0596 18.3428 70.0596 17.8245C70.0596 17.2451 70.2305 16.7971 70.5703 16.4769C70.9101 16.1585 71.341 15.9271 71.8609 15.7883C72.3828 15.6495 73.0346 15.5384 73.8145 15.4588L76.4273 15.1904V15.8475Z" fill="white"/>
<path d="M128.116 10.2944C127.555 9.00605 126.764 7.99352 125.74 7.2531C124.721 6.51637 123.549 6.1443 122.227 6.1443C121.306 6.1443 120.483 6.32571 119.765 6.68482C119.044 7.04393 118.437 7.52891 117.947 8.13791C117.455 8.74691 117.079 9.42069 116.819 10.1574V0.00802612H112.255V22.7632H116.819V19.4997C117.258 20.5771 117.965 21.4508 118.936 22.119C119.328 22.3874 119.742 22.604 120.173 22.7632C120.812 23.0038 121.497 23.1223 122.225 23.1223C122.981 23.1223 123.69 23.0038 124.348 22.7632C124.84 22.5836 125.302 22.3411 125.739 22.0301C126.76 21.3027 127.553 20.292 128.114 19.0055C128.675 17.7172 128.955 16.2641 128.955 14.6481C128.955 13.0321 128.676 11.5809 128.116 10.2944ZM117.633 18.5872C116.972 17.6394 116.641 16.327 116.641 14.6481C116.641 12.9729 116.972 11.6531 117.633 10.6961C118.294 9.73723 119.234 9.2578 120.455 9.2578C121.677 9.2578 122.619 9.73723 123.28 10.6961C123.941 11.6531 124.272 12.971 124.272 14.6481C124.272 16.3252 123.941 17.6394 123.28 18.5872C122.619 19.5349 121.677 20.0088 120.455 20.0088C119.234 20.0088 118.294 19.5349 117.633 18.5872Z" fill="white"/>
</g>
<defs>
<clipPath id="clip0_77_544">
<rect width="129" height="29" fill="white"/>
</clipPath>
</defs>
</svg>
