<svg width="129" height="29" viewBox="0 0 129 29" fill="none" xmlns="http://www.w3.org/2000/svg">
<g clip-path="url(#clip0_1_15)">
<path d="M23.6533 7.86758C22.7916 6.71992 21.4806 6.14612 19.7183 6.14612C18.398 6.14612 17.3153 6.52001 16.476 7.26969C15.6347 8.01752 15.0034 8.96156 14.5837 10.1C14.2624 8.96156 13.6867 8.01752 12.8567 7.26969C12.0247 6.52186 10.9495 6.14612 9.62919 6.14612C8.346 6.14612 7.3005 6.48114 6.48899 7.14937C5.67749 7.8176 5.05168 8.71167 4.61157 9.82971V6.5052H0.043335V22.7649H4.63942V13.5133C4.63942 12.0751 4.86969 11.0236 5.33023 10.3554C5.79077 9.68718 6.4927 9.35214 7.43421 9.35214C8.37571 9.35214 9.07023 9.68718 9.52148 10.3554C9.97273 11.0236 10.1974 12.0565 10.1974 13.4541V22.7668H14.7935V13.5152C14.7935 12.0769 15.0238 11.0255 15.4843 10.3573C15.9449 9.68903 16.6468 9.35399 17.5883 9.35399C18.5298 9.35399 19.2243 9.68903 19.6756 10.3573C20.1268 11.0255 20.3515 12.0584 20.3515 13.4559V22.7686H24.9476V12.4638C24.9439 10.5479 24.5149 9.01709 23.6533 7.86758Z" fill="#7E5BC2"/>
<path d="M42.8139 20.9879C42.1435 19.6903 41.1871 18.6871 39.9448 17.9781C38.7043 17.2691 37.2521 16.9156 35.5901 16.9156C33.9689 16.9156 32.526 17.2747 31.2633 17.9929C30.0024 18.7111 29.0256 19.7088 28.3366 20.9879C28.0358 21.5451 27.7981 22.1374 27.631 22.765H32.2159C32.4369 21.9931 32.7767 21.3859 33.2336 20.9435C33.8631 20.3345 34.6486 20.0291 35.5901 20.0291C36.5502 20.0291 37.3524 20.3586 37.9931 21.0175C38.4425 21.4803 38.7656 22.0634 38.9587 22.765H43.4898C43.3245 22.1374 43.0998 21.5451 42.8139 20.9879Z" fill="#7E5BC2"/>
<path d="M43.8203 6.38494C43.8203 4.68938 43.4842 3.19186 42.8138 1.89427C42.4424 1.17605 41.9819 0.548548 41.4359 0.0098877H29.7684C29.2001 0.550399 28.7247 1.17791 28.3366 1.89427C27.6458 3.1715 27.3004 4.6394 27.3004 6.29609C27.3004 7.95279 27.6402 9.42439 28.3218 10.7127C29.0014 11.9992 29.9671 13.0025 31.2187 13.7226C32.4703 14.4408 33.9281 14.798 35.5901 14.798C37.5715 14.798 39.2447 14.3612 40.6059 13.4819C41.967 12.6027 42.9178 11.3162 43.4601 9.6206H38.8324C38.5334 10.3185 38.1323 10.8386 37.6309 11.1773C37.1295 11.5161 36.4592 11.6864 35.6198 11.6864C34.6393 11.6864 33.8259 11.3476 33.1853 10.6683C32.5446 9.99081 32.1453 8.99309 31.9838 7.67513H43.7275C43.7906 7.21237 43.8203 6.78477 43.8203 6.38494ZM32.0154 4.61719C32.1973 3.38068 32.6022 2.45699 33.2335 1.84799C33.8631 1.23899 34.6486 0.935422 35.5901 0.935422C36.5502 0.935422 37.3524 1.26306 37.9931 1.92204C38.6337 2.58102 39.0144 3.47878 39.1351 4.61719H32.0154Z" fill="#7E5BC2"/>
<path d="M84.7915 0.00802612V22.7632H89.3876V0.00802612H84.7915Z" fill="#7E5BC2"/>
<path d="M107.473 16.7324C106.91 15.7754 106.071 15.022 104.949 14.4722C103.826 13.9225 102.446 13.6485 100.805 13.6485C99.4229 13.6485 98.1861 13.8595 97.0942 14.2779C96.0023 14.6962 95.1221 15.3052 94.4517 16.103C93.7813 16.9027 93.3765 17.8523 93.2354 18.9481H97.8612C97.9596 18.3298 98.266 17.8097 98.7767 17.3913C99.2892 16.973 99.9651 16.762 100.805 16.762C101.746 16.762 102.465 17.0378 102.968 17.5857C103.467 18.1355 103.718 18.8389 103.718 19.6978V19.968L99.421 20.3864C97.4396 20.5659 95.8185 21.0157 94.5557 21.7321C94.0729 22.0061 93.6829 22.3504 93.3876 22.765H108.312V20.0254C108.312 18.7871 108.032 17.6912 107.473 16.7324Z" fill="#7E5BC2"/>
<path d="M108.309 0.00802612H103.716V0.126494L99.4191 0.546684C97.4377 0.726234 95.8166 1.1742 94.5538 1.89241C93.2929 2.61062 92.6615 3.80826 92.6615 5.48533C92.6615 6.50342 92.9122 7.41599 93.4117 8.22491C93.9131 9.03382 94.5984 9.66318 95.4711 10.1111C96.3421 10.5591 97.2984 10.7849 98.3384 10.7849C99.7608 10.7849 100.892 10.4851 101.733 9.88716C102.574 9.28742 103.256 8.44888 103.776 7.37157V10.4258H108.31V0.185727C108.312 0.128344 108.312 0.069111 108.309 0.00802612ZM103.718 3.51394C103.718 4.37283 103.583 5.14472 103.311 5.83332C103.042 6.52193 102.637 7.06059 102.095 7.44931C101.555 7.83803 100.903 8.03425 100.143 8.03425C99.6216 8.03425 99.148 7.92874 98.7153 7.71957C98.2864 7.50854 97.9503 7.21422 97.7107 6.83476C97.4693 6.45714 97.3504 6.00733 97.3504 5.48903C97.3504 4.90964 97.5213 4.46168 97.8611 4.14145C98.2009 3.82306 98.6299 3.59354 99.1517 3.45286C99.6736 3.31588 100.324 3.20296 101.105 3.12336L103.718 2.85496V3.51394Z" fill="#7E5BC2"/>
<path d="M62.7321 22.765C62.6838 24.1644 62.3013 25.325 61.5789 26.2376C60.8082 27.215 59.8166 27.9184 58.6058 28.3497C57.3932 28.7773 56.097 28.992 54.7173 28.992C53.3746 28.992 52.1342 28.7976 50.9921 28.4089C49.85 28.0202 48.8993 27.4204 48.1379 26.6115C47.3784 25.8026 46.9271 24.7993 46.7878 23.6017H51.4136C51.5752 24.3403 51.954 24.903 52.5557 25.2936C53.1574 25.6823 53.876 25.8766 54.7191 25.8766C55.7386 25.8766 56.5705 25.5971 57.2112 25.0381C57.811 24.5143 58.1304 23.7572 58.1694 22.7632H62.7321V22.765Z" fill="#7E5BC2"/>
<path d="M73.3969 22.765C72.7303 23.0057 71.9485 23.1241 71.0515 23.1241C70.2939 23.1241 69.5789 23.0057 68.9104 22.765H73.3969Z" fill="#7E5BC2"/>
<path d="M124.349 22.765C123.692 23.0057 122.985 23.1241 122.227 23.1241C121.499 23.1241 120.814 23.0057 120.175 22.765H124.349Z" fill="#7E5BC2"/>
<path d="M58.1696 6.50527V10.0982C57.7889 8.93942 57.1334 7.99167 56.203 7.2531C55.2708 6.51638 54.1232 6.14432 52.7638 6.14432C51.4417 6.14432 50.2699 6.48861 49.2485 7.17721C48.229 7.8658 47.4361 8.83391 46.8753 10.0815C46.3145 11.3291 46.0341 12.7619 46.0341 14.3778C46.0341 15.9957 46.3145 17.4284 46.8753 18.676C47.4361 19.9236 48.2272 20.8917 49.2485 21.5803C50.2699 22.2689 51.4417 22.6114 52.7638 22.6114C53.9839 22.6114 55.0758 22.2874 56.0359 21.6396C56.9978 20.9917 57.7072 20.1365 58.1696 19.0795V22.5521C58.1696 22.6225 58.1677 22.6928 58.1659 22.7632C58.1269 23.7572 57.8075 24.5161 57.2077 25.0381C56.567 25.5971 55.7351 25.8767 54.7156 25.8767C53.8725 25.8767 53.1538 25.6823 52.5521 25.2936C51.9505 24.903 51.5716 24.3403 51.4101 23.6017H46.7843C46.9236 24.7993 47.3748 25.8026 48.1343 26.6115C48.8957 27.4204 49.8465 28.0183 50.9885 28.4089C52.1306 28.7976 53.3711 28.992 54.7137 28.992C56.0935 28.992 57.3896 28.7773 58.6023 28.3497C59.8149 27.9202 60.8047 27.215 61.5753 26.2376C62.2958 25.325 62.6802 24.1644 62.7285 22.765C62.7303 22.6669 62.7322 22.5651 62.7322 22.4651V6.50527H58.1696ZM57.3599 18.154C56.6988 19.0518 55.7573 19.4997 54.5354 19.4997C53.2931 19.4997 52.3479 19.0518 51.6979 18.154C51.0461 17.2544 50.7211 15.9975 50.7211 14.3797C50.7211 12.7637 51.0461 11.5068 51.6979 10.6072C52.3479 9.70946 53.2931 9.2615 54.5354 9.2615C55.7573 9.2615 56.6988 9.70946 57.3599 10.6072C58.0192 11.5068 58.3497 12.7637 58.3497 14.3797C58.3497 15.9975 58.0192 17.2544 57.3599 18.154Z" fill="#7E5BC2"/>
<path d="M80.1824 9.23182C79.6198 8.27297 78.7804 7.52143 77.6588 6.97167C76.5353 6.4219 75.1555 6.14612 73.5139 6.14612C72.1323 6.14612 70.8955 6.35711 69.8036 6.77546C68.7117 7.1938 67.8315 7.8028 67.1611 8.60246C66.4907 9.40212 66.0859 10.3499 65.9448 11.4475H70.5706C70.669 10.8293 70.9754 10.3091 71.4861 9.88894C71.9986 9.4706 72.6746 9.26143 73.5139 9.26143C74.4554 9.26143 75.1741 9.53539 75.6773 10.0852C76.1769 10.6349 76.4276 11.3383 76.4276 12.1972V12.4638L72.1304 12.8821C70.149 13.0635 68.5279 13.5115 67.2651 14.2297C66.0042 14.9479 65.3728 16.1455 65.3728 17.8226C65.3728 18.8388 65.6235 19.7533 66.123 20.5622C66.6244 21.3711 67.3097 22.0005 68.1825 22.4484C68.4183 22.5687 68.6616 22.6761 68.9085 22.7631C69.5771 23.0037 70.2902 23.1222 71.0497 23.1222C71.9485 23.1222 72.7284 23.0037 73.3951 22.7631C73.7832 22.6261 74.1323 22.4447 74.4424 22.2226C75.2855 21.6247 75.9652 20.7862 76.4851 19.7088V22.7631H81.0199V12.523C81.0236 11.2865 80.7432 10.1888 80.1824 9.23182ZM76.4276 15.8475C76.4276 16.7064 76.292 17.4802 76.0209 18.1688C75.7516 18.8555 75.3468 19.396 74.8045 19.7847C74.2641 20.1735 73.6123 20.3678 72.8528 20.3678C72.331 20.3678 71.8575 20.2642 71.4248 20.055C70.9958 19.844 70.6597 19.5496 70.4201 19.1702C70.1787 18.7926 70.0599 18.3428 70.0599 17.8245C70.0599 17.2451 70.2307 16.7971 70.5706 16.4769C70.9104 16.1585 71.3412 15.9271 71.8612 15.7883C72.383 15.6495 73.0348 15.5384 73.8148 15.4588L76.4276 15.1904V15.8475Z" fill="#7E5BC2"/>
<path d="M128.115 10.2944C127.555 9.00605 126.764 7.99352 125.74 7.2531C124.721 6.51637 123.549 6.1443 122.227 6.1443C121.306 6.1443 120.483 6.32571 119.764 6.68482C119.044 7.04393 118.437 7.52891 117.946 8.13791C117.454 8.74691 117.079 9.42069 116.819 10.1574V0.00802612H112.255V22.7632H116.819V19.4997C117.258 20.5771 117.965 21.4508 118.936 22.119C119.328 22.3874 119.742 22.604 120.173 22.7632C120.812 23.0038 121.497 23.1223 122.225 23.1223C122.981 23.1223 123.69 23.0038 124.348 22.7632C124.84 22.5836 125.302 22.3411 125.738 22.0301C126.76 21.3027 127.553 20.292 128.114 19.0055C128.674 17.7172 128.955 16.2641 128.955 14.6481C128.955 13.0321 128.676 11.5809 128.115 10.2944ZM117.633 18.5872C116.972 17.6394 116.641 16.327 116.641 14.6481C116.641 12.9729 116.972 11.6531 117.633 10.6961C118.294 9.73723 119.233 9.2578 120.455 9.2578C121.677 9.2578 122.619 9.73723 123.28 10.6961C123.941 11.6531 124.271 12.971 124.271 14.6481C124.271 16.3252 123.941 17.6394 123.28 18.5872C122.619 19.5349 121.677 20.0088 120.455 20.0088C119.233 20.0088 118.294 19.5349 117.633 18.5872Z" fill="#7E5BC2"/>
</g>
<defs>
<clipPath id="clip0_1_15">
<rect width="129" height="29" fill="white"/>
</clipPath>
</defs>
</svg>
