<svg width="16" height="16" viewBox="0 0 16 16" fill="none" xmlns="http://www.w3.org/2000/svg">
<g clip-path="url(#clip0_319_899)">
<path d="M7.33301 2.66667H2.66634C2.31272 2.66667 1.97358 2.80715 1.72353 3.0572C1.47348 3.30724 1.33301 3.64638 1.33301 4.00001V13.3333C1.33301 13.687 1.47348 14.0261 1.72353 14.2761C1.97358 14.5262 2.31272 14.6667 2.66634 14.6667H11.9997C12.3533 14.6667 12.6924 14.5262 12.9425 14.2761C13.1925 14.0261 13.333 13.687 13.333 13.3333V8.66667" stroke="#5A5A5A" stroke-width="1.5" stroke-linecap="round" stroke-linejoin="round"/>
<path d="M12.333 1.66667C12.5982 1.40145 12.9579 1.25246 13.333 1.25246C13.7081 1.25246 14.0678 1.40145 14.333 1.66667C14.5982 1.93189 14.7472 2.2916 14.7472 2.66667C14.7472 3.04174 14.5982 3.40145 14.333 3.66667L7.99967 10L5.33301 10.6667L5.99967 8L12.333 1.66667Z" stroke="#5A5A5A" stroke-width="1.5" stroke-linecap="round" stroke-linejoin="round"/>
</g>
<defs>
<clipPath id="clip0_319_899">
<rect width="16" height="16" fill="white"/>
</clipPath>
</defs>
</svg>
