<svg width="115" height="115" viewBox="0 0 115 115" fill="none" xmlns="http://www.w3.org/2000/svg">
<path d="M91.0417 14.375H23.9583C18.6656 14.375 14.375 18.6656 14.375 23.9583V91.0417C14.375 96.3344 18.6656 100.625 23.9583 100.625H91.0417C96.3344 100.625 100.625 96.3344 100.625 91.0417V23.9583C100.625 18.6656 96.3344 14.375 91.0417 14.375Z" stroke="#D8D5D5" stroke-width="9.58333" stroke-linecap="round" stroke-linejoin="round"/>
<path d="M40.7295 47.9167C44.699 47.9167 47.917 44.6987 47.917 40.7292C47.917 36.7596 44.699 33.5417 40.7295 33.5417C36.7599 33.5417 33.542 36.7596 33.542 40.7292C33.542 44.6987 36.7599 47.9167 40.7295 47.9167Z" stroke="#D8D5D5" stroke-width="9.58333" stroke-linecap="round" stroke-linejoin="round"/>
<path d="M100.625 71.875L76.6663 47.9167L23.958 100.625" stroke="#D8D5D5" stroke-width="9.58333" stroke-linecap="round" stroke-linejoin="round"/>
</svg>
