<svg width="129" height="29" viewBox="0 0 129 29" fill="none" xmlns="http://www.w3.org/2000/svg">
<g clip-path="url(#clip0_1_242)">
<path d="M23.6529 7.86758C22.7913 6.71992 21.4802 6.14612 19.7179 6.14612C18.3976 6.14612 17.315 6.52001 16.4756 7.26969C15.6344 8.01752 15.003 8.96156 14.5833 10.1C14.2621 8.96156 13.6864 8.01752 12.8563 7.26969C12.0244 6.52186 10.9492 6.14612 9.62882 6.14612C8.34563 6.14612 7.30014 6.48114 6.48862 7.14937C5.67712 7.8176 5.05131 8.71167 4.6112 9.82971V6.5052H0.0429688V22.7649H4.63906V13.5133C4.63906 12.0751 4.86933 11.0236 5.32986 10.3554C5.7904 9.68718 6.49234 9.35214 7.43384 9.35214C8.37534 9.35214 9.06986 9.68718 9.52112 10.3554C9.97237 11.0236 10.1971 12.0565 10.1971 13.4541V22.7668H14.7932V13.5152C14.7932 12.0769 15.0234 11.0255 15.484 10.3573C15.9445 9.68903 16.6464 9.35399 17.5879 9.35399C18.5295 9.35399 19.224 9.68903 19.6752 10.3573C20.1265 11.0255 20.3512 12.0584 20.3512 13.4559V22.7686H24.9473V12.4638C24.9435 10.5479 24.5146 9.01709 23.6529 7.86758Z" fill="#7E5BC2"/>
<path d="M42.8137 20.9879C42.1434 19.6903 41.187 18.6871 39.9447 17.9781C38.7042 17.2691 37.252 16.9156 35.59 16.9156C33.9688 16.9156 32.5259 17.2747 31.2632 17.9929C30.0023 18.7111 29.0255 19.7088 28.3365 20.9879C28.0357 21.5451 27.798 22.1374 27.6309 22.765H32.2158C32.4368 21.9931 32.7766 21.3859 33.2334 20.9435C33.863 20.3345 34.6485 20.0291 35.59 20.0291C36.5501 20.0291 37.3523 20.3586 37.993 21.0175C38.4423 21.4803 38.7655 22.0634 38.9586 22.765H43.4897C43.3244 22.1374 43.0997 21.5451 42.8137 20.9879Z" fill="#7E5BC2"/>
<path d="M43.8207 6.38494C43.8207 4.68938 43.4846 3.19186 42.8142 1.89427C42.4428 1.17605 41.9823 0.548548 41.4363 0.0098877H29.7687C29.2005 0.550399 28.7251 1.17791 28.337 1.89427C27.6462 3.1715 27.3008 4.6394 27.3008 6.29609C27.3008 7.95279 27.6406 9.42439 28.3221 10.7127C29.0018 11.9992 29.9674 13.0025 31.2191 13.7226C32.4707 14.4408 33.9284 14.798 35.5905 14.798C37.5719 14.798 39.245 14.3612 40.6062 13.4819C41.9674 12.6027 42.9182 11.3162 43.4604 9.6206H38.8328C38.5338 10.3185 38.1327 10.8386 37.6313 11.1773C37.1299 11.5161 36.4595 11.6864 35.6202 11.6864C34.6397 11.6864 33.8263 11.3476 33.1856 10.6683C32.545 9.99081 32.1457 8.99309 31.9842 7.67513H43.7279C43.791 7.21237 43.8207 6.78477 43.8207 6.38494ZM32.0157 4.61719C32.1977 3.38068 32.6025 2.45699 33.2339 1.84799C33.8634 1.23899 34.649 0.935422 35.5905 0.935422C36.5505 0.935422 37.3528 1.26306 37.9934 1.92204C38.6341 2.58102 39.0148 3.47878 39.1355 4.61719H32.0157Z" fill="#7E5BC2"/>
<path d="M84.791 0.00802612V22.7632H89.3871V0.00802612H84.791Z" fill="#7E5BC2"/>
<path d="M107.473 16.7324C106.91 15.7754 106.071 15.022 104.949 14.4722C103.826 13.9225 102.446 13.6485 100.805 13.6485C99.4229 13.6485 98.1861 13.8595 97.0942 14.2779C96.0023 14.6962 95.1221 15.3052 94.4517 16.103C93.7813 16.9027 93.3765 17.8523 93.2354 18.9481H97.8612C97.9596 18.3298 98.266 17.8097 98.7767 17.3913C99.2892 16.973 99.9651 16.762 100.805 16.762C101.746 16.762 102.465 17.0378 102.968 17.5857C103.467 18.1355 103.718 18.8389 103.718 19.6978V19.968L99.421 20.3864C97.4396 20.5659 95.8185 21.0157 94.5557 21.7321C94.0729 22.0061 93.6829 22.3504 93.3876 22.765H108.312V20.0254C108.312 18.7871 108.032 17.6912 107.473 16.7324Z" fill="#7E5BC2"/>
<path d="M108.308 0.00802612H103.716V0.126494L99.4188 0.546684C97.4374 0.726234 95.8162 1.1742 94.5534 1.89241C93.2925 2.61062 92.6611 3.80826 92.6611 5.48533C92.6611 6.50342 92.9118 7.41599 93.4114 8.22491C93.9128 9.03382 94.598 9.66318 95.4708 10.1111C96.3417 10.5591 97.2981 10.7849 98.338 10.7849C99.7605 10.7849 100.891 10.4851 101.733 9.88716C102.574 9.28742 103.255 8.44888 103.775 7.37157V10.4258H108.31V0.185727C108.312 0.128344 108.312 0.069111 108.308 0.00802612ZM103.718 3.51394C103.718 4.37283 103.582 5.14472 103.311 5.83332C103.042 6.52193 102.637 7.06059 102.095 7.44931C101.554 7.83803 100.903 8.03425 100.143 8.03425C99.6212 8.03425 99.1477 7.92874 98.715 7.71957C98.286 7.50854 97.9499 7.21422 97.7103 6.83476C97.4689 6.45714 97.3501 6.00733 97.3501 5.48903C97.3501 4.90964 97.5209 4.46168 97.8607 4.14145C98.2006 3.82306 98.6296 3.59354 99.1514 3.45286C99.6732 3.31588 100.323 3.20296 101.105 3.12336L103.718 2.85496V3.51394Z" fill="#7E5BC2"/>
<path d="M62.7323 22.765C62.6841 24.1644 62.3015 25.325 61.5791 26.2376C60.8085 27.215 59.8168 27.9184 58.6061 28.3497C57.3934 28.7773 56.0973 28.992 54.7175 28.992C53.3749 28.992 52.1344 28.7976 50.9924 28.4089C49.8503 28.0202 48.8995 27.4204 48.1381 26.6115C47.3786 25.8026 46.9274 24.7993 46.7881 23.6017H51.4139C51.5754 24.3403 51.9543 24.903 52.5559 25.2936C53.1576 25.6823 53.8763 25.8766 54.7194 25.8766C55.7389 25.8766 56.5708 25.5971 57.2115 25.0381C57.8113 24.5143 58.1307 23.7572 58.1697 22.7632H62.7323V22.765Z" fill="#7E5BC2"/>
<path d="M73.3967 22.765C72.73 23.0057 71.9482 23.1241 71.0513 23.1241C70.2936 23.1241 69.5787 23.0057 68.9102 22.765H73.3967Z" fill="#7E5BC2"/>
<path d="M124.349 22.765C123.692 23.0057 122.984 23.1241 122.227 23.1241C121.499 23.1241 120.814 23.0057 120.175 22.765H124.349Z" fill="#7E5BC2"/>
<path d="M58.1697 6.50527V10.0982C57.789 8.93942 57.1335 7.99167 56.2031 7.2531C55.2709 6.51638 54.1233 6.14432 52.764 6.14432C51.4418 6.14432 50.27 6.48861 49.2487 7.17721C48.2292 7.8658 47.4362 8.83391 46.8754 10.0815C46.3146 11.3291 46.0342 12.7619 46.0342 14.3778C46.0342 15.9957 46.3146 17.4284 46.8754 18.676C47.4362 19.9236 48.2273 20.8917 49.2487 21.5803C50.27 22.2689 51.4418 22.6114 52.764 22.6114C53.984 22.6114 55.0759 22.2874 56.036 21.6396C56.9979 20.9917 57.7073 20.1365 58.1697 19.0795V22.5521C58.1697 22.6225 58.1679 22.6928 58.166 22.7632C58.127 23.7572 57.8076 24.5161 57.2078 25.0381C56.5671 25.5971 55.7352 25.8767 54.7157 25.8767C53.8726 25.8767 53.1539 25.6823 52.5523 25.2936C51.9506 24.903 51.5718 24.3403 51.4102 23.6017H46.7844C46.9237 24.7993 47.3749 25.8026 48.1345 26.6115C48.8958 27.4204 49.8466 28.0183 50.9887 28.4089C52.1307 28.7976 53.3712 28.992 54.7138 28.992C56.0936 28.992 57.3898 28.7773 58.6024 28.3497C59.815 27.9202 60.8048 27.215 61.5755 26.2376C62.2959 25.325 62.6803 24.1644 62.7286 22.765C62.7305 22.6669 62.7323 22.5651 62.7323 22.4651V6.50527H58.1697ZM57.3601 18.154C56.699 19.0518 55.7575 19.4997 54.5356 19.4997C53.2932 19.4997 52.348 19.0518 51.698 18.154C51.0462 17.2544 50.7213 15.9975 50.7213 14.3797C50.7213 12.7637 51.0462 11.5068 51.698 10.6072C52.348 9.70946 53.2932 9.2615 54.5356 9.2615C55.7575 9.2615 56.699 9.70946 57.3601 10.6072C58.0193 11.5068 58.3498 12.7637 58.3498 14.3797C58.3498 15.9975 58.0193 17.2544 57.3601 18.154Z" fill="#7E5BC2"/>
<path d="M80.1827 9.23182C79.62 8.27297 78.7806 7.52143 77.659 6.97167C76.5355 6.4219 75.1558 6.14612 73.5142 6.14612C72.1325 6.14612 70.8958 6.35711 69.8039 6.77546C68.7119 7.1938 67.8317 7.8028 67.1613 8.60246C66.491 9.40212 66.0861 10.3499 65.945 11.4475H70.5708C70.6692 10.8293 70.9756 10.3091 71.4863 9.88894C71.9988 9.4706 72.6748 9.26143 73.5142 9.26143C74.4557 9.26143 75.1743 9.53539 75.6776 10.0852C76.1771 10.6349 76.4278 11.3383 76.4278 12.1972V12.4638L72.1307 12.8821C70.1493 13.0635 68.5281 13.5115 67.2653 14.2297C66.0044 14.9479 65.373 16.1455 65.373 17.8226C65.373 18.8388 65.6237 19.7533 66.1233 20.5622C66.6247 21.3711 67.3099 22.0005 68.1827 22.4484C68.4185 22.5687 68.6618 22.6761 68.9088 22.7631C69.5773 23.0037 70.2904 23.1222 71.0499 23.1222C71.9487 23.1222 72.7286 23.0037 73.3953 22.7631C73.7834 22.6261 74.1325 22.4447 74.4427 22.2226C75.2857 21.6247 75.9654 20.7862 76.4854 19.7088V22.7631H81.0202V12.523C81.0239 11.2865 80.7435 10.1888 80.1827 9.23182ZM76.4278 15.8475C76.4278 16.7064 76.2922 17.4802 76.0211 18.1688C75.7519 18.8555 75.347 19.396 74.8048 19.7847C74.2644 20.1735 73.6126 20.3678 72.8531 20.3678C72.3312 20.3678 71.8577 20.2642 71.425 20.055C70.9961 19.844 70.6599 19.5496 70.4204 19.1702C70.179 18.7926 70.0601 18.3428 70.0601 17.8245C70.0601 17.2451 70.231 16.7971 70.5708 16.4769C70.9106 16.1585 71.3415 15.9271 71.8614 15.7883C72.3832 15.6495 73.0351 15.5384 73.815 15.4588L76.4278 15.1904V15.8475Z" fill="#7E5BC2"/>
<path d="M128.116 10.2944C127.555 9.00605 126.764 7.99352 125.74 7.2531C124.721 6.51637 123.549 6.1443 122.227 6.1443C121.306 6.1443 120.483 6.32571 119.765 6.68482C119.044 7.04393 118.437 7.52891 117.947 8.13791C117.455 8.74691 117.079 9.42069 116.819 10.1574V0.00802612H112.255V22.7632H116.819V19.4997C117.258 20.5771 117.965 21.4508 118.936 22.119C119.328 22.3874 119.742 22.604 120.173 22.7632C120.812 23.0038 121.497 23.1223 122.225 23.1223C122.981 23.1223 123.69 23.0038 124.348 22.7632C124.84 22.5836 125.302 22.3411 125.739 22.0301C126.76 21.3027 127.553 20.292 128.114 19.0055C128.675 17.7172 128.955 16.2641 128.955 14.6481C128.955 13.0321 128.676 11.5809 128.116 10.2944ZM117.633 18.5872C116.972 17.6394 116.641 16.327 116.641 14.6481C116.641 12.9729 116.972 11.6531 117.633 10.6961C118.294 9.73723 119.234 9.2578 120.455 9.2578C121.677 9.2578 122.619 9.73723 123.28 10.6961C123.941 11.6531 124.272 12.971 124.272 14.6481C124.272 16.3252 123.941 17.6394 123.28 18.5872C122.619 19.5349 121.677 20.0088 120.455 20.0088C119.234 20.0088 118.294 19.5349 117.633 18.5872Z" fill="#7E5BC2"/>
</g>
<defs>
<clipPath id="clip0_1_242">
<rect width="129" height="29" fill="white"/>
</clipPath>
</defs>
</svg>
