<svg width="19" height="19" viewBox="0 0 19 19" fill="none" xmlns="http://www.w3.org/2000/svg">
<g clip-path="url(#clip0_1036_132)">
<path d="M18.6279 1.5567C18.3223 1.27664 17.8878 1.18331 17.4941 1.31308L0.787877 6.82015C0.332583 6.97022 0.0238327 7.37664 0.00130727 7.85546C-0.021181 8.33432 0.248047 8.76794 0.6872 8.96013L4.81877 10.7678C4.83892 10.8613 6.02497 16.3623 6.06531 16.5493C6.11708 16.7894 6.23898 17.0034 6.49723 17.0692C6.75844 17.1357 6.94299 16.9929 7.13788 16.847C7.24635 16.7658 10.2039 14.5513 10.2039 14.5513L13.7882 17.4843C13.997 17.6553 14.2522 17.7444 14.5123 17.7444C14.6362 17.7444 14.7613 17.7242 14.8829 17.6829C15.2602 17.555 15.5398 17.2471 15.631 16.8593L18.9696 2.66494C19.0645 2.26137 18.9336 1.83677 18.6279 1.5567ZM7.40496 11.8036C7.40292 11.8085 7.40092 11.8139 7.39902 11.8204L6.7079 14.2351L5.93662 10.6579L11.2402 7.71125L7.53217 11.5884C7.47376 11.6494 7.43079 11.7233 7.40496 11.8036ZM7.62431 15.0887L7.93822 13.992L8.23847 12.9429L9.31431 13.8233L7.62431 15.0887ZM17.8833 2.4094L14.5448 16.6038C14.5431 16.6109 14.5409 16.6206 14.5245 16.6261C14.5084 16.6316 14.5005 16.6253 14.4949 16.6207L10.5728 13.4112C10.5727 13.4111 10.5726 13.411 10.5725 13.411L8.7553 11.9239L14.5935 5.81949C14.7841 5.62011 14.8004 5.31132 14.6319 5.09293C14.4632 4.8745 14.1603 4.81212 13.9192 4.94616L5.27455 9.74919L1.13452 7.93777C1.1219 7.93228 1.11496 7.9292 1.11596 7.90786C1.11696 7.8866 1.12416 7.88418 1.13723 7.87988L17.8434 2.37285C17.8515 2.37021 17.8606 2.36717 17.8741 2.37942C17.8875 2.39174 17.8853 2.40109 17.8833 2.4094Z" fill="black"/>
</g>
<defs>
<clipPath id="clip0_1036_132">
<rect width="19" height="19" fill="white"/>
</clipPath>
</defs>
</svg>
