<svg width="16" height="16" viewBox="0 0 16 16" fill="none" xmlns="http://www.w3.org/2000/svg">
<path d="M2 4H3.33333H14" stroke="#A01313" stroke-width="1.5" stroke-linecap="round" stroke-linejoin="round"/>
<path d="M12.6663 4V13.3333C12.6663 13.687 12.5259 14.0261 12.2758 14.2761C12.0258 14.5262 11.6866 14.6667 11.333 14.6667H4.66634C4.31272 14.6667 3.97358 14.5262 3.72353 14.2761C3.47348 14.0261 3.33301 13.687 3.33301 13.3333V4M5.33301 4V2.66667C5.33301 2.31305 5.47348 1.97391 5.72353 1.72386C5.97358 1.47381 6.31272 1.33333 6.66634 1.33333H9.33301C9.68663 1.33333 10.0258 1.47381 10.2758 1.72386C10.5259 1.97391 10.6663 2.31305 10.6663 2.66667V4" stroke="#A01313" stroke-width="1.5" stroke-linecap="round" stroke-linejoin="round"/>
<path d="M6.66699 7.33333V11.3333" stroke="#A01313" stroke-width="1.5" stroke-linecap="round" stroke-linejoin="round"/>
<path d="M9.33301 7.33333V11.3333" stroke="#A01313" stroke-width="1.5" stroke-linecap="round" stroke-linejoin="round"/>
</svg>
