<svg width="19" height="19" viewBox="0 0 19 19" fill="none" xmlns="http://www.w3.org/2000/svg">
<path d="M18.2084 2.375C17.4503 2.90975 16.6109 3.31875 15.7226 3.58625C15.2458 3.03802 14.6121 2.64946 13.9073 2.4731C13.2025 2.29675 12.4605 2.34111 11.7817 2.60019C11.1029 2.85927 10.5201 3.32056 10.112 3.92169C9.70396 4.52281 9.49034 5.23476 9.50008 5.96124V6.75291C8.10884 6.78899 6.73026 6.48043 5.48713 5.85472C4.244 5.22902 3.17492 4.30558 2.37508 3.16666C2.37508 3.16666 -0.791586 10.2917 6.33342 13.4583C4.703 14.565 2.76075 15.12 0.791748 15.0417C7.91675 19 16.6251 15.0417 16.6251 5.93749C16.6244 5.71698 16.6032 5.49701 16.5618 5.28041C17.3697 4.48359 17.9399 3.47756 18.2084 2.375V2.375Z" stroke="black" stroke-width="1.5" stroke-linecap="round" stroke-linejoin="round"/>
</svg>
