<svg width="19" height="19" viewBox="0 0 19 19" fill="none" xmlns="http://www.w3.org/2000/svg">
<g clip-path="url(#clip0_1036_137)">
<path d="M13.8598 11.3264L13.8527 11.3857C12.1118 10.5181 11.9297 10.4025 11.7049 10.7397C11.5489 10.9733 11.0945 11.5029 10.9576 11.6597C10.819 11.814 10.6813 11.8259 10.4462 11.719C10.2087 11.6003 9.44628 11.3509 8.54378 10.5434C7.84078 9.91403 7.36894 9.14216 7.22961 8.90466C6.99765 8.50408 7.48294 8.44708 7.92469 7.61108C8.00386 7.44483 7.96348 7.3142 7.9049 7.19624C7.84553 7.07749 7.3729 5.91374 7.17498 5.44983C6.98498 4.98749 6.78944 5.04608 6.64298 5.04608C6.18698 5.00649 5.85369 5.01283 5.55998 5.31841C4.28223 6.72283 4.60444 8.17158 5.69773 9.71216C7.84632 12.5242 8.99107 13.0419 11.0842 13.7607C11.6495 13.9404 12.1649 13.9151 12.5726 13.8565C13.027 13.7845 13.9714 13.2857 14.1686 12.7276C14.3704 12.1695 14.3704 11.7064 14.3111 11.5995C14.2525 11.4926 14.0973 11.4332 13.8598 11.3264V11.3264Z" fill="black"/>
<path d="M16.245 2.73037C10.1579 -3.15409 0.0839167 1.11378 0.0799583 9.4152C0.0799583 11.0745 0.514583 12.6927 1.34267 14.1217L0 18.9999L5.01521 17.6921C11.2733 21.0725 18.9968 16.5837 19 9.41995C19 6.90562 18.0183 4.53932 16.2331 2.76124L16.245 2.73037ZM17.4183 9.39382C17.4135 15.4366 10.7801 19.2105 5.53375 16.1262L5.24875 15.9567L2.28 16.7286L3.07563 13.843L2.88642 13.5461C-0.378417 8.34883 3.3725 1.55632 9.557 1.55632C11.6581 1.55632 13.6301 2.3757 15.1153 3.86007C16.5997 5.33178 17.4183 7.30382 17.4183 9.39382V9.39382Z" fill="black"/>
</g>
<defs>
<clipPath id="clip0_1036_137">
<rect width="19" height="19" fill="white"/>
</clipPath>
</defs>
</svg>
